<?xml version="1.0" standalone="no"?><!DOCTYPE svg PUBLIC "-//W3C//DTD SVG 1.1//EN" "http://www.w3.org/Graphics/SVG/1.1/DTD/svg11.dtd"><svg t="1515131696945" class="icon" style="" viewBox="0 0 1024 1024" version="1.1" xmlns="http://www.w3.org/2000/svg" p-id="1233" xmlns:xlink="http://www.w3.org/1999/xlink" width="200" height="200"><defs><style type="text/css"></style></defs><path d="M793.6 153.6c-25.6-22.4-57.6-22.4-80-6.4-25.6 16-35.2 41.6-28.8 70.4 0 25.6 19.2 38.4 38.4 51.2C857.6 374.4 896 550.4 816 704c-70.4 134.4-230.4 208-377.6 176C288 848 172.8 710.4 169.6 556.8c-3.2-118.4 41.6-214.4 137.6-288 35.2-28.8 41.6-70.4 16-99.2-25.6-32-64-35.2-102.4-6.4C60.8 288-6.4 505.6 57.6 691.2 121.6 889.6 304 1024 512 1024c262.4 0 480-211.2 480-476.8 3.2-163.2-67.2-294.4-198.4-393.6z" p-id="1234"></path><path d="M489.6 540.8c48 16 89.6-16 89.6-70.4V76.8C582.4 28.8 553.6 0 512 0c-38.4 0-67.2 28.8-70.4 70.4v403.2c3.2 35.2 22.4 57.6 48 67.2z" p-id="1235"></path></svg>