<?xml version="1.0" standalone="no"?><!DOCTYPE svg PUBLIC "-//W3C//DTD SVG 1.1//EN" "http://www.w3.org/Graphics/SVG/1.1/DTD/svg11.dtd"><svg t="1515137549503" class="icon" style="" viewBox="0 0 1024 1024" version="1.1" xmlns="http://www.w3.org/2000/svg" p-id="1036" xmlns:xlink="http://www.w3.org/1999/xlink" width="200" height="200"><defs><style type="text/css"></style></defs><path d="M513.024 1001.828174A111.88313 111.88313 0 0 0 625.39687 890.434783H400.695652a111.88313 111.88313 0 0 0 112.328348 111.393391z m-320.823652-489.293913v5.030956c0 43.408696-13.445565 84.591304-36.062609 122.301218-8.013913 13.312-16.562087 25.154783-25.065739 35.350261-4.897391 5.921391-8.592696 9.794783-10.329043 11.486608l-3.250087 3.650783C57.433043 768.934957 96.478609 845.913043 196.118261 845.913043h634.434782c99.906783 0 135.43513-75.063652 74.306783-153.11026l-1.736348-2.181566-2.048-1.869913a180.535652 180.535652 0 0 1-11.53113-11.976347 298.206609 298.206609 0 0 1-27.603478-36.151653c-24.709565-38.021565-39.357217-79.070609-39.357218-121.366261 0-2.31513 0-4.630261 0.089044-6.945391l-0.044522-76.755478c0-132.096-84.591304-258.626783-189.350957-283.202783C624.951652 91.447652 571.65913 44.521739 507.458783 44.521739 437.426087 44.521739 395.931826 92.16 382.085565 151.863652 268.332522 200.214261 192.333913 310.761739 192.333913 435.556174v63.933217c-0.133565 3.116522-0.133565 6.233043-0.089043 13.089392z m65.80313-72.525913c0-105.427478 67.31687-198.210783 166.199652-232.848696l21.99374-7.657739v-29.028174c0-33.124174 27.38087-60.237913 61.261913-60.237913 33.836522 0 61.217391 27.113739 61.217391 60.237913v29.028174l21.993739 7.702261C689.508174 241.797565 756.869565 334.625391 756.869565 440.05287l0.089044 77.06713-0.089044 7.568696c0 56.765217 18.788174 109.968696 49.775305 158.230261 18.432 28.672 36.953043 49.597217 49.997913 61.618086l-3.739826-4.096c28.093217 36.285217 22.216348 48.88487-22.394435 48.88487H196.118261c-45.456696 0-53.426087-15.894261-26.178783-52.001391l-3.250087 3.695304c12.02087-11.798261 29.072696-32.411826 45.946435-60.816696 28.226783-47.549217 45.278609-100.396522 45.278609-157.250782v-5.431652l0.044522-11.842783V440.008348z" p-id="1037"></path></svg>