<?xml version="1.0" standalone="no"?><!DOCTYPE svg PUBLIC "-//W3C//DTD SVG 1.1//EN" "http://www.w3.org/Graphics/SVG/1.1/DTD/svg11.dtd"><svg t="1515131690815" class="icon" style="" viewBox="0 0 1024 1024" version="1.1" xmlns="http://www.w3.org/2000/svg" p-id="1124" xmlns:xlink="http://www.w3.org/1999/xlink" width="200" height="200"><defs><style type="text/css"></style></defs><path d="M288.587294 296.598588C288.587294 187.632941 379.00047 99.267764 490.496 99.267764 601.99153 99.267764 692.404704 187.632941 692.404704 296.598588 692.404704 405.62447 601.99153 493.929412 490.496 493.929412 379.00047 493.929412 288.587294 405.62447 288.587294 296.598588M964.306822 878.772704C964.306822 739.990586 864.256 619.39953 723.727059 552.598588L724.148704 552.237176C724.148704 552.237176 721.377882 550.972236 716.8 549.044706 711.499296 546.575059 706.078118 544.406588 700.656941 542.117647 686.441414 536.154353 668.852704 529.046588 656.805645 525.071059 733.665882 473.088 784.082822 386.409412 784.082822 288.105412 784.082822 128.963764 652.107296 0 489.291294 0 326.415059 0 194.43953 128.963764 194.43953 288.105412 194.43953 384 242.507294 468.690824 316.175059 521.035294 311.898353 522.36047 307.983059 524.288 303.766588 525.673412L301.357176 525.673412C277.865412 533.38353 233.35153 552.83953 233.35153 552.83953L234.556236 553.984C97.520941 621.086118 0.180706 740.472474 0.180706 877.748704 0.180706 908.408474 0 962.620237 0 962.620237L104.146824 962.800941C104.207059 953.645178 104.32753 919.311059 104.32753 898.529882 104.32753 739.749645 290.093176 610.123294 471.94353 599.823059 660.48 603.196236 859.136 735.954822 859.136 899.553882 859.136 920.335059 859.256474 954.729414 859.316704 963.885178L964.487526 963.764704C964.487526 963.764704 964.306822 909.492704 964.306822 878.772704" p-id="1125"></path></svg>