<?xml version="1.0" standalone="no"?><!DOCTYPE svg PUBLIC "-//W3C//DTD SVG 1.1//EN" "http://www.w3.org/Graphics/SVG/1.1/DTD/svg11.dtd"><svg t="1516094622107" class="icon" style="" viewBox="0 0 1024 1024" version="1.1" xmlns="http://www.w3.org/2000/svg" p-id="1053" xmlns:xlink="http://www.w3.org/1999/xlink" width="200" height="200"><defs><style type="text/css"></style></defs><path d="M941.571151 258.402211l-94.689592 94.752014L846.881558 274.760784l35.931351-35.954887c10.813277-10.824533 10.813277-28.371164 0-39.196721l-58.760289-58.799174c-10.815323-10.825556-28.354791-10.825556-39.169091 0l-36.721343 36.742832-78.346369 0 95.479585-95.542007c21.632693-21.649066 56.710606-21.649066 78.343299 0l97.93245 97.994871C963.203844 201.653743 963.203844 236.758262 941.571151 258.402211zM471.500099 650.38886c-36.726459-36.748972-87.526449-87.585801-97.92938-97.997941l312.680419-312.886103 98.630345 97.295953L471.500099 650.38886zM272.916275 770.674411c-13.649881 6.336312-25.889647-6.786567-19.552312-19.567661l90.664929-149.878542 78.669734 78.718853L272.916275 770.674411zM320.209394 541.912263 200.311677 784.631284c-10.0591 27.320229 11.805884 51.80283 39.1036 39.128159l242.559385-119.979582c10.455119-2.034333 20.600177-6.089695 28.700669-14.196327l336.207251-336.430332 0 527.003715c0 43.115983-34.951023 78.069053-78.069053 78.069053L144.271336 958.225971c-43.11496 0-78.067007-34.95307-78.067007-78.069053L66.204329 255.619842c0-43.115983 34.952047-78.067007 78.067007-78.067007l525.544481 0-335.419306 335.641363C326.296019 521.299807 322.243727 531.445888 320.209394 541.912263zM727.526193 198.201108l20.635993-20.649296 20.650319 0c43.11803 0 78.069053 34.951023 78.069053 78.067007l0 19.140942-22.830985 22.843264L727.526193 198.201108z" fill="#ffffff" p-id="1054"></path></svg>