<?xml version="1.0" standalone="no"?><!DOCTYPE svg PUBLIC "-//W3C//DTD SVG 1.1//EN" "http://www.w3.org/Graphics/SVG/1.1/DTD/svg11.dtd"><svg t="1515124664011" class="icon" style="" viewBox="0 0 1024 1024" version="1.1" xmlns="http://www.w3.org/2000/svg" p-id="869" xmlns:xlink="http://www.w3.org/1999/xlink" width="200" height="200"><defs><style type="text/css"></style></defs><path d="M0 512A512 512 0 0 1 512 0 512 512 0 0 1 1024 512 512 512 0 0 1 512 1024 512 512 0 0 1 0 512z m455.087158 341.315368h113.825684v-113.717894H455.087158v113.717894zM284.887579 398.282105l113.340632 0.377263c0-55.834947 36.001684-114.957474 112.909473-114.957473 45.918316 0 112.532211 18.593684 112.532211 86.716631 0 62.679579-20.372211 75.452632-81.812211 120.293053-59.284211 40.367158-89.573053 93.076211-87.417263 158.127158v33.576421h115.604211c0-102.938947 72.757895-115.334737 128.377263-200.218947 30.019368-43.870316 41.121684-82.243368 41.121684-136.192 0-84.884211-80.303158-174.888421-200.973474-174.888422-128.592842 0-253.682526 63.649684-253.682526 227.166316z" fill="#ffffff" p-id="870"></path></svg>