<?xml version="1.0" standalone="no"?><!DOCTYPE svg PUBLIC "-//W3C//DTD SVG 1.1//EN" "http://www.w3.org/Graphics/SVG/1.1/DTD/svg11.dtd"><svg t="1515137544288" class="icon" style="" viewBox="0 0 1106 1024" version="1.1" xmlns="http://www.w3.org/2000/svg" p-id="927" xmlns:xlink="http://www.w3.org/1999/xlink" width="216.015625" height="200"><defs><style type="text/css"></style></defs><path d="M1086.82643 532.189053L623.526263 29.829118a100.072836 100.072836 0 0 0-142.553898 0L18.242413 532.189053A61.868392 61.868392 0 0 0 4.842347 600.044708a61.298176 61.298176 0 0 0 57.021559 38.204445h88.383417a8.838342 8.838342 0 0 1 8.838341 8.838342v276.269453a101.213267 101.213267 0 0 0 100.643052 100.643052h193.303085c25.944809 0 26.229917-28.51078 26.229917-49.323649V731.194294h146.260299v242.911842c0 22.238408 0 49.608756 26.229917 49.608756h193.303086a101.213267 101.213267 0 0 0 100.643051-101.213267v-275.984346a8.838342 8.838342 0 0 1 8.838342-8.838342h88.668524a61.298176 61.298176 0 0 0 57.021559-38.204444 61.868392 61.868392 0 0 0-13.400066-67.28544z m-35.353367 47.042786a8.553234 8.553234 0 0 1-8.268126 5.417049h-88.668524a61.583284 61.583284 0 0 0-61.298176 61.868391v276.269454A48.468325 48.468325 0 0 1 845.05502 970.684842h-166.788061v-265.720465a26.515025 26.515025 0 0 0-26.229917-26.515025h-199.575456a26.515025 26.515025 0 0 0-26.229918 26.515025V970.684842H259.728716a48.468325 48.468325 0 0 1-48.183217-48.468325v-275.699238a61.583284 61.583284 0 0 0-61.298176-61.868391H61.578798a8.268126 8.268126 0 0 1-8.268126-5.417049 8.553234 8.553234 0 0 1 1.995755-9.693665L518.321486 68.31867a47.89811 47.89811 0 0 1 67.855655 0L1049.477309 569.538174a8.553234 8.553234 0 0 1 1.995754 9.693665z" p-id="928"></path></svg>